<?xml version="1.0" encoding="utf-8"?>
<!-- Generator: Adobe Illustrator 21.0.0, SVG Export Plug-In . SVG Version: 6.00 Build 0)  -->
<svg version="1.1" id="Layer_1" xmlns="http://www.w3.org/2000/svg" xmlns:xlink="http://www.w3.org/1999/xlink" x="0px" y="0px"
	 viewBox="0 0 512 512" style="enable-background:new 0 0 512 512;" xml:space="preserve">
<style type="text/css">
	.st0{fill:#D4E1F4;}
	.st1{fill:#00CAA4;}
	.st2{fill:#0072DE;}
</style>
<title>Bank</title>
<path class="st0" d="M266,380c-32.6,0-59-26.3-59-58.9c0-13.2,4.4-26.1,12.6-36.5c-25.6,20.1-30.1,57.1-10.1,82.8
	c20.1,25.6,57.1,30.1,82.8,10.1c3.8-2.9,7.1-6.3,10.1-10.1C292,375.6,279.2,380,266,380z"/>
<path class="st1" d="M256,402c39.2,0,71-31.8,71-71s-31.8-71-71-71s-71,31.8-71,71l0,0C185,370.2,216.8,402,256,402z M256,272
	c32.6,0,59,26.4,59,59s-26.4,59-59,59s-59-26.4-59-59l0,0C197,298.4,223.4,272,256,272z"/>
<path class="st1" d="M256.1,354.2c0,0-0.1,0-0.1,0s-0.1,0-0.1,0c-4.8-0.1-8.7-4-8.7-8.8c0-3.3-2.7-6-6-6s-6,2.7-6,6
	c0,9.2,6,17.2,14.8,19.9v3.7c0,3.3,2.7,6,6,6c3.3,0,6-2.7,6-6v-3.7c11-3.3,17.2-14.9,13.9-25.9c-2.6-8.8-10.7-14.8-19.9-14.8
	c-4.8,0-8.8-3.9-8.8-8.8c0-4.8,3.9-8.8,8.8-8.8c4.8,0,8.8,3.9,8.8,8.8c0,3.3,2.7,6,6,6s6-2.7,6-6c0-9.2-6-17.2-14.8-19.9v-3
	c0-3.3-2.7-6-6-6c-3.3,0-6,2.7-6,6v3c-11,3.3-17.2,14.9-13.9,25.9c2.6,8.8,10.7,14.8,19.9,14.8c4.8,0,8.8,3.9,8.8,8.7
	S260.9,354.2,256.1,354.2L256.1,354.2L256.1,354.2z"/>
<path class="st2" d="M503.5,127l-245-115c-1.6-0.8-3.5-0.8-5.1,0L8.4,127c-2.1,1-3.4,3.1-3.4,5.4v45c0,3.1,2.6,5.7,5.7,5.6
	c0.1,0,0.2,0,0.3,0h31.7c-5.2,7-7.7,14.1-7.2,22.2c1,15.7,13.4,28.1,29.1,29.2c0.7,0,1.5,0.1,2.2,0.1c7,0,13.7-2.3,19.3-6.5v188
	H74.9c-2.2-0.1-4.3,1.1-5.4,3.1l-8.1,16.6c-0.3,0.8-0.5,1.7-0.4,2.6V449H31.4c-3.3,0-6.4,2.7-6.4,6v39.6c0.2,3.5,2.9,6.2,6.4,6.4
	h449.2c3.5-0.1,6.3-2.9,6.4-6.4V455c0-3.3-3.1-6-6.4-6H449v-10.7c0.1-0.9-0.1-1.8-0.5-2.7l-8.3-16.5c-1-2-3.1-3.2-5.3-3.1h-11V226.1
	c6,5.2,13.1,8.4,21.4,8.4c8.4,0,16.5-3.4,22.4-9.4c5.9-6.1,9.1-14.3,8.8-22.8c-0.2-7.3-3-13.3-7.5-19.3H501c3.1,0.2,5.8-2.2,6-5.3
	c0-0.1,0-0.2,0-0.3v-45C507,130.1,505.7,127.9,503.5,127z M79.6,217.3c-3.8,3.6-9,5.5-14.3,5.1c-10.6-0.7-18.6-9.9-17.8-20.5
	c0.3-4.4,2.1-8.6,5.1-11.8c3.6-3.9,8.6-6.1,13.9-6.2h92.2c10.5,0,19.3,8.5,19.6,18.7c0.4,10.6-7.9,19.4-18.5,19.8
	c-10.6,0.4-19.4-7.9-19.8-18.5c0-0.3,0-0.6,0-0.8c0-3.3-2.7-6.1-6-6.2H91.6c-3.4,0.1-6,2.8-6,6.2C85.7,208.5,83.5,213.7,79.6,217.3z
	 M98,209h28v207H98V209z M73,439.7l5.6-11.7H145l6,11.7v9.3H73V439.7z M37,489v-8h438v8H37z M475,469H37v-8h438V469z M437,439.7v9.3
	h-78v-9.3l5.9-11.7h66.4L437,439.7z M384,416V209h28v207H384z M459.2,216.7c-3.6,3.7-8.5,5.8-13.7,5.8c-10.6-0.1-19.1-8.7-19.1-19.3
	c0-3.4-2.6-6.1-6-6.2h-42.5c-3.4,0.1-6,2.8-6,6.2c-0.1,10.5-8.7,18.9-19.2,18.9s-18.9-8.7-18.9-19.2c0.1-10.4,8.5-18.8,18.9-18.9
	h92.2c10.5,0,19.3,8.5,19.6,18.7C464.7,207.9,462.8,213,459.2,216.7z M321.7,205.2c1,15.7,13.4,28.1,29.1,29.2
	c0.7,0,1.4,0.1,2.1,0.1c7,0,13.1-2.2,19.1-6.5v188h-10.8c-2.2-0.1-4.3,1.1-5.4,3.1l-8.3,16.6c-0.4,0.8-0.6,1.7-0.5,2.6V449H163
	v-10.7c0-0.9-0.2-1.8-0.6-2.7l-8.3-16.5c-1-2-3.1-3.2-5.3-3.1H138V226.1c6,5.2,13,8.4,21.2,8.4c8.4,0,16.5-3.4,22.3-9.4
	c5.9-6.1,9.1-14.3,8.8-22.8c-0.2-7.3-3-13.3-7.5-19.3H329C323.8,190,321.2,197.1,321.7,205.2z M495,171H17v-34.8L256,24l239,112.2
	V171z"/>
<path class="st2" d="M256,51.2c-27.9,0-51.4,21-54.4,48.8h-15.4c-3.3,0-6,2.7-6,6s2.7,6,6,6h15.4c3.3,30.1,30.4,51.8,60.4,48.4
	c25.5-2.8,45.6-22.9,48.4-48.4h15.5c3.3,0,6-2.7,6-6s-2.7-6-6-6h-15.5C307.3,72.3,283.9,51.3,256,51.2z M256,148.8
	c-23.6,0-42.8-19.2-42.8-42.8s19.2-42.8,42.8-42.8c23.6,0,42.8,19.2,42.8,42.8C298.7,129.6,279.6,148.8,256,148.8z"/>
<path class="st2" d="M256,96.3c-6.1,0-11,4.9-11,11s4.9,11,11,11s11-4.9,11-11l0,0C267,101.3,262.1,96.4,256,96.3z M256,108.3
	c-0.6,0-1-0.4-1-1s0.4-1,1-1c0.6,0,1,0.4,1,1S256.5,108.3,256,108.3z"/>
<path class="st2" d="M157.1,214.4c6.1,0,11-4.9,11-11s-4.9-11-11-11s-11,4.9-11,11l0,0C146.1,209.5,151,214.4,157.1,214.4z
	 M157.1,202.4c0.6,0,1,0.4,1,1s-0.4,1-1,1s-1-0.4-1-1S156.5,202.4,157.1,202.4z"/>
<path class="st2" d="M66.5,192.4c-6.1,0-11,4.9-11,11s4.9,11,11,11s11-4.9,11-11l0,0C77.5,197.3,72.6,192.4,66.5,192.4z M66.5,204.4
	c-0.6,0-1-0.4-1-1s0.4-1,1-1s1,0.4,1,1S67.1,204.4,66.5,204.4z"/>
<path class="st2" d="M444.4,192.4c-6.1,0-11,4.9-11,11s4.9,11,11,11s11-4.9,11-11l0,0C455.4,197.3,450.5,192.4,444.4,192.4z
	 M444.4,204.4c-0.6,0-1-0.4-1-1s0.4-1,1-1s1,0.4,1,1S445,204.4,444.4,204.4z"/>
<path class="st2" d="M353.8,192.4c-6.1,0-11,4.9-11,11s4.9,11,11,11s11-4.9,11-11l0,0C364.8,197.3,359.9,192.4,353.8,192.4z
	 M353.8,204.4c-0.6,0-1-0.4-1-1s0.4-1,1-1s1,0.4,1,1S354.4,204.4,353.8,204.4z"/>
</svg>
