<?xml version="1.0" encoding="utf-8"?>
<!-- Generator: Adobe Illustrator 21.0.0, SVG Export Plug-In . SVG Version: 6.00 Build 0)  -->
<svg version="1.1" id="Layer_1" xmlns="http://www.w3.org/2000/svg" xmlns:xlink="http://www.w3.org/1999/xlink" x="0px" y="0px"
	 viewBox="0 0 512 512" style="enable-background:new 0 0 512 512;" xml:space="preserve">
<style type="text/css">
	.st0{fill:#0072DE;}
	.st1{fill:#00CAA4;}
</style>
<title>Coin  Dollar</title>
<path class="st0" d="M256,269.7c58.5,0,106-47.5,106-106s-47.5-106-106-106s-106,47.5-106,106C150.1,222.2,197.5,269.6,256,269.7z
	 M256,69.7c51.9,0,94,42.1,94,94s-42.1,94-94,94s-94-42.1-94-94C162.1,111.8,204.1,69.7,256,69.7z"/>
<path class="st0" d="M152.8,266.9c0.2,0.2,0.4,0.3,0.6,0.5c56.8,56.4,148.5,56.4,205.3,0c0.2-0.1,0.4-0.3,0.6-0.5
	c0.2-0.2,0.3-0.4,0.5-0.6c56.4-56.8,56.4-148.5,0-205.3c-0.2-0.2-0.3-0.4-0.5-0.6c-0.2-0.2-0.4-0.3-0.6-0.5
	c-56.8-56.4-148.5-56.4-205.3,0c-0.2,0.2-0.4,0.3-0.6,0.5c-0.2,0.2-0.3,0.4-0.5,0.6c-56.4,56.8-56.4,148.5,0,205.3
	C152.4,266.5,152.6,266.7,152.8,266.9z M130.5,157.6h-8.4c1.5-31.3,13.9-61.2,35-84.3l5.9,5.9c2.3,2.3,6.1,2.3,8.5,0s2.3-6.1,0-8.5
	l-5.9-5.9c23.1-21.2,53-33.6,84.4-35v8.4c0,3.3,2.7,6,6,6c3.3,0,6-2.7,6-6v-8.4c31.4,1.4,61.2,13.8,84.4,35l-5.9,5.9
	c-2.4,2.3-2.4,6.1-0.1,8.5c2.3,2.4,6.1,2.4,8.5,0.1c0,0,0,0,0.1-0.1l5.9-5.9c21.2,23.2,33.5,53,35,84.3h-8.4c-3.3,0-6,2.7-6,6
	s2.7,6,6,6h8.4c-1.3,31.4-13.7,61.3-35,84.4l-5.9-5.9c-2.4-2.3-6.2-2.2-8.5,0.2c-2.2,2.3-2.2,6,0,8.3l5.9,5.9
	c-23.1,21.2-53,33.6-84.4,35v-8.4c0-3.3-2.7-6-6-6c-3.3,0-6,2.7-6,6l0,0v8.4c-31.4-1.4-61.2-13.8-84.4-35l5.9-5.9
	c2.4-2.3,2.4-6.1,0.1-8.5c-2.3-2.4-6.1-2.4-8.5-0.1c0,0,0,0-0.1,0.1l-5.9,5.9c-21.3-23.1-33.7-53-35-84.4h8.4c3.3,0,6-2.7,6-6
	S133.9,157.6,130.5,157.6L130.5,157.6z"/>
<path class="st1" d="M256,123.7c9.2,0,16.7,7.5,16.7,16.7c0,3.3,2.7,6,6,6s6-2.7,6-6c0-13.5-9.5-25.2-22.7-28.1v-7.1
	c0-3.3-2.7-6-6-6c-3.3,0-6,2.7-6,6v7.1c-15.5,3.3-25.4,18.6-22.1,34.1c2.8,13.3,14.5,22.7,28.1,22.7c9.2,0,16.7,7.5,16.7,16.7
	c0,9.2-7.4,16.6-16.5,16.7c-0.1,0-0.1,0-0.2,0s-0.1,0-0.2,0c-9.2-0.1-16.6-7.5-16.6-16.7c0-3.3-2.7-6-6-6s-6,2.7-6,6
	c0,13.5,9.5,25.2,22.7,28.1v8.2c0,3.3,2.7,6,6,6c3.3,0,6-2.7,6-6V214c15.5-3.3,25.4-18.6,22.1-34.1c-2.8-13.3-14.5-22.7-28.1-22.7
	c-9.2-0.1-16.7-7.6-16.6-16.9C239.5,131.1,246.9,123.8,256,123.7L256,123.7z"/>
<path class="st1" d="M253,479.1c-3.3,0-6,2.7-6,6v12.3c0,3.3,2.7,6,6,6s6-2.7,6-6v-12.3C259,481.7,256.3,479.1,253,479.1
	C253,479.1,253,479.1,253,479.1z"/>
<path class="st1" d="M259,407.9c0-3.3-2.7-6-6-6s-6,2.7-6,6v55.9c0,3.3,2.7,6,6,6s6-2.7,6-6V407.9z"/>
<path class="st1" d="M199,477.4c0,3.3,2.7,6,6,6s6-2.7,6-6V412c0-3.3-2.7-6-6-6s-6,2.7-6,6V477.4z"/>
<path class="st1" d="M205,396.7c3.3,0,6-2.7,6-6v-12.7c0-3.3-2.7-6-6-6s-6,2.7-6,6v12.7C199,394,201.7,396.7,205,396.7z"/>
<path class="st1" d="M302,426.7c-3.3,0-6,2.7-6,6v44.7c0,3.3,2.7,6,6,6s6-2.7,6-6v-44.7C308,429.3,305.3,426.7,302,426.7z"/>
<path class="st1" d="M302,371.9c-3.3,0-6,2.7-6,6v33.7c0,3.3,2.7,6,6,6s6-2.7,6-6l0,0v-33.7C308,374.6,305.3,371.9,302,371.9z"/>
<path class="st1" d="M350,463.4c3.3,0,6-2.7,6-6v-33.8c0-3.3-2.7-6-6-6s-6,2.7-6,6v33.8C344,460.7,346.7,463.4,350,463.4z"/>
<path class="st1" d="M350,407.8c3.3,0,6-2.7,6-6l0,0v-45.2c0-3.3-2.7-6-6-6s-6,2.7-6,6v45.2C344,405.1,346.7,407.8,350,407.8
	C350,407.8,350,407.8,350,407.8z"/>
<path class="st1" d="M350,343.5c3.3,0,6-2.7,6-6v-9.6c0-3.3-2.7-6-6-6s-6,2.7-6,6v9.6C344,340.8,346.7,343.5,350,343.5z"/>
<path class="st1" d="M156,428.4c-3.3,0-6,2.7-6,6v23c0,3.3,2.7,6,6,6s6-2.7,6-6v-23C162,431.1,159.3,428.4,156,428.4z"/>
<path class="st1" d="M156,321.9c-3.3,0-6,2.7-6,6v84.8c0,3.3,2.7,6,6,6s6-2.7,6-6v-84.8C162,324.6,159.3,321.9,156,321.9z"/>
</svg>
