<?xml version="1.0" encoding="utf-8"?>
<!-- Generator: Adobe Illustrator 21.0.0, SVG Export Plug-In . SVG Version: 6.00 Build 0)  -->
<svg version="1.1" id="Layer_1" xmlns="http://www.w3.org/2000/svg" xmlns:xlink="http://www.w3.org/1999/xlink" x="0px" y="0px"
	 viewBox="0 0 512 512" style="enable-background:new 0 0 512 512;" xml:space="preserve">
<style type="text/css">
	.st0{fill:#0072DE;}
	.st1{fill:#00CAA4;}
</style>
<title>Dollar Coins</title>
<path class="st0" d="M392,14c-58.5,0-106,47.5-106,106s47.5,106,106,106s106-47.5,106-106C497.9,61.5,450.5,14.1,392,14z M392,214
	c-51.9,0-94-42.1-94-94s42.1-94,94-94s94,42.1,94,94C485.9,171.9,443.9,213.9,392,214z"/>
<path class="st0" d="M392,68.2c12.5,0,22.6,10.1,22.6,22.6c0,3.3,2.7,6,6,6s6-2.7,6-6c0-16.8-12.1-31.1-28.6-34V46.5
	c0-3.3-2.7-6-6-6s-6,2.7-6,6v10.2c-18.8,3.3-31.4,21.2-28,40c2.9,16.5,17.3,28.6,34,28.6c12.5,0,22.6,10.1,22.5,22.6
	c0,12.3-9.9,22.4-22.3,22.5c-0.1,0-0.2,0-0.3,0s-0.2,0-0.3,0c-12.4-0.2-22.3-10.2-22.3-22.6c0-3.3-2.7-6-6-6s-6,2.7-6,6
	c0,16.8,12.1,31.1,28.6,34v11.5c0,3.3,2.7,6,6,6s6-2.7,6-6V182c18.8-3.3,31.4-21.2,28-40c-2.9-16.5-17.3-28.6-34-28.6
	c-12.5-0.1-22.5-10.3-22.4-22.7C369.7,78.3,379.7,68.3,392,68.2z"/>
<path class="st1" d="M365.2,281.1c-21.3-8.5-49.5-13.2-79.4-13.2c-14,0-28,1-41.8,3.2V108.3c0-14.3-12.7-27.2-35.7-36.4
	C187,63.4,158.9,58.7,129,58.7s-58,4.7-79.3,13.2C26.7,81.1,14,94.1,14,108.3V370c0,14.3,12.7,27.2,35.7,36.4
	c21.3,8.5,49.6,13.2,79.4,13.2c14,0,28-1,41.9-3.2v32c0,14.3,12.6,27.2,35.6,36.4c21.3,8.5,49.4,13.2,79.3,13.2s58.1-4.7,79.4-13.2
	c23-9.2,35.8-22.1,35.8-36.4V317.6C401,303.3,388.2,290.4,365.2,281.1z M129,70.7c60.7,0,103,19.8,103,37.6s-42.3,37.6-103,37.6
	S26,126.1,26,108.3S68.3,70.7,129,70.7z M26,131c5.9,5.1,13.8,9.8,23.7,13.7c21.3,8.5,49.5,13.2,79.3,13.2s58-4.7,79.3-13.2
	c9.9-3.9,17.7-8.6,23.7-13.7v20.9c0,17.8-42.3,37.6-103,37.6S26,169.7,26,151.9V131z M26,174.7c5.9,5.1,13.8,9.8,23.7,13.7
	c21.3,8.5,49.5,13.2,79.3,13.2s58-4.7,79.3-13.2c9.9-3.9,17.7-8.6,23.7-13.7v20.9c0,17.8-42.3,37.6-103,37.6S26,213.3,26,195.6
	V174.7z M26,218.3c5.9,5.1,13.8,9.8,23.7,13.7c21.3,8.5,49.5,13.2,79.3,13.2s58-4.7,79.3-13.2c9.9-3.9,17.7-8.6,23.7-13.7v20.9
	c0,17.8-42.3,37.6-103,37.6S26,257,26,239.2V218.3z M26,261.9c5.9,5.1,13.8,9.8,23.7,13.7c21.3,8.5,49.5,13.2,79.3,13.2
	s58-4.7,79.3-13.2c9.9-3.9,17.7-8.6,23.7-13.7v11.6c-8.7,1.9-17.3,4.5-25.6,7.7c-22.7,9.1-35.3,21.8-35.7,35.8
	c-13.8,2.3-27.7,3.4-41.7,3.4c-60.7,0-103-19.8-103-37.6V261.9z M26,305.5c5.9,5.1,13.8,9.8,23.7,13.7c21.3,8.5,49.6,13.2,79.4,13.2
	c14,0,28-1,41.9-3.2v31.5c-13.8,2.3-27.8,3.5-41.8,3.4C68.4,364,26,344.2,26,326.4V305.5z M26,370v-20.9c5.9,5.1,13.8,9.8,23.7,13.7
	C71,371.3,99.3,376,129.1,376c14,0,28-1,41.9-3.2v31.5c-13.8,2.3-27.8,3.4-41.8,3.4C68.4,407.6,26,387.8,26,370z M286,486
	c-60.7,0-103-19.8-103-37.6v-20.9c6,5.1,13.7,9.8,23.6,13.7c21.3,8.5,49.4,13.2,79.3,13.2s58.1-4.7,79.4-13.2
	c9.9-3.9,17.8-8.6,23.8-13.7v20.9C389,466.2,346.7,486,286,486z M286,442.4c-60.7,0-103-19.8-103-37.6v-20.9
	c6,5.1,13.7,9.8,23.6,13.7c21.3,8.5,49.4,13.2,79.3,13.2s58.1-4.7,79.4-13.2c9.9-3.9,17.8-8.6,23.8-13.7v20.9
	C389,422.6,346.7,442.4,286,442.4z M286,398.8c-60.7,0-103-19.8-103-37.6v-20.9c6,5.1,13.7,9.8,23.6,13.7
	c21.3,8.5,49.4,13.2,79.3,13.2s58.1-4.7,79.4-13.2c9.9-3.9,17.8-8.6,23.8-13.7v20.9C389,379,346.7,398.8,286,398.8L286,398.8z
	 M285.8,355.2c-60.7,0-103-19.8-103-37.6s42.3-37.6,103-37.6s103,19.8,103,37.6S346.5,355.2,285.8,355.2z"/>
</svg>
