<?xml version="1.0" encoding="utf-8"?>
<!-- Generator: Adobe Illustrator 21.0.0, SVG Export Plug-In . SVG Version: 6.00 Build 0)  -->
<svg version="1.1" id="Layer_1" xmlns="http://www.w3.org/2000/svg" xmlns:xlink="http://www.w3.org/1999/xlink" x="0px" y="0px"
	 viewBox="0 0 512 512" style="enable-background:new 0 0 512 512;" xml:space="preserve">
<style type="text/css">
	.st0{fill:#0072DE;}
	.st1{fill:#00CAA4;}
</style>
<title>Coin  Dollar</title>
<path class="st0" d="M256,442.1c58.5,0,106-47.5,106-106s-47.5-106-106-106s-106,47.5-106,106C150.1,394.6,197.5,442,256,442.1z
	 M256,242.1c51.9,0,94,42.1,94,94s-42.1,94-94,94s-94-42.1-94-94C162.1,284.2,204.1,242.2,256,242.1z"/>
<path class="st0" d="M152.8,439.3c0.2,0.2,0.4,0.3,0.6,0.5c56.8,56.4,148.5,56.4,205.3,0c0.2-0.1,0.4-0.3,0.6-0.5
	c0.2-0.2,0.3-0.4,0.5-0.6c56.4-56.8,56.4-148.5,0-205.3c-0.2-0.2-0.3-0.4-0.5-0.6c-0.2-0.2-0.4-0.3-0.6-0.5
	c-56.8-56.4-148.5-56.4-205.3,0c-0.2,0.2-0.4,0.3-0.6,0.5c-0.2,0.2-0.3,0.4-0.5,0.6c-56.4,56.8-56.4,148.5,0,205.3
	C152.4,438.9,152.6,439.1,152.8,439.3z M130.5,330h-8.4c1.5-31.3,13.9-61.2,35-84.3l5.9,5.9c2.3,2.3,6.1,2.3,8.5,0s2.3-6.1,0-8.5
	l-5.9-5.9c23.1-21.2,53-33.6,84.4-35v8.4c0,3.3,2.7,6,6,6c3.3,0,6-2.7,6-6v-8.4c31.4,1.4,61.2,13.8,84.4,35l-5.9,5.9
	c-2.4,2.3-2.4,6.1-0.1,8.5c2.3,2.4,6.1,2.4,8.5,0.1c0,0,0,0,0.1-0.1l5.9-5.9c21.2,23.2,33.5,53,35,84.3h-8.4c-3.3,0-6,2.7-6,6
	s2.7,6,6,6h8.4c-1.3,31.4-13.7,61.3-35,84.4l-5.9-5.9c-2.4-2.3-6.2-2.2-8.5,0.2c-2.2,2.3-2.2,6,0,8.3l5.9,5.9
	c-23.1,21.2-53,33.6-84.4,35v-8.4c0-3.3-2.7-6-6-6c-3.3,0-6,2.7-6,6l0,0v8.4c-31.4-1.4-61.2-13.8-84.4-35l5.9-5.9
	c2.4-2.3,2.4-6.1,0.1-8.5c-2.3-2.4-6.1-2.4-8.5-0.1c0,0,0,0-0.1,0.1l-5.9,5.9c-21.3-23.1-33.7-53-35-84.4h8.4c3.3,0,6-2.7,6-6
	S133.9,330,130.5,330L130.5,330z"/>
<path class="st1" d="M256,296.1c9.2,0,16.7,7.5,16.7,16.7c0,3.3,2.7,6,6,6s6-2.7,6-6c0-13.5-9.5-25.2-22.7-28.1v-7.1
	c0-3.3-2.7-6-6-6c-3.3,0-6,2.7-6,6v7.1c-15.5,3.3-25.4,18.6-22.1,34.1c2.8,13.3,14.5,22.7,28.1,22.7c9.2,0,16.7,7.5,16.7,16.7
	c0,9.2-7.4,16.6-16.5,16.7c-0.1,0-0.1,0-0.2,0s-0.1,0-0.2,0c-9.2-0.1-16.6-7.5-16.6-16.7c0-3.3-2.7-6-6-6s-6,2.7-6,6
	c0,13.5,9.5,25.2,22.7,28.1v8.2c0,3.3,2.7,6,6,6c3.3,0,6-2.7,6-6v-8.2c15.5-3.3,25.4-18.6,22.1-34.1c-2.8-13.3-14.5-22.7-28.1-22.7
	c-9.2-0.1-16.7-7.6-16.6-16.9C239.5,303.6,246.9,296.2,256,296.1L256,296.1z"/>
<path class="st1" d="M253,54.2c3.3,0,6-2.7,6-6V35.9c0-3.3-2.7-6-6-6c-3.3,0-6,2.7-6,6v12.3C247,51.5,249.7,54.2,253,54.2
	C253,54.2,253,54.2,253,54.2z"/>
<path class="st1" d="M247,125.3c0,3.3,2.7,6,6,6c3.3,0,6-2.7,6-6V69.4c0-3.3-2.7-6-6-6c-3.3,0-6,2.7-6,6V125.3z"/>
<path class="st1" d="M307,55.9c0-3.3-2.7-6-6-6s-6,2.7-6,6v65.4c0,3.3,2.7,6,6,6s6-2.7,6-6V55.9z"/>
<path class="st1" d="M301,136.6c-3.3,0-6,2.7-6,6v12.7c0,3.3,2.7,6,6,6s6-2.7,6-6v-12.7C307,139.3,304.3,136.6,301,136.6z"/>
<path class="st1" d="M204,106.6c3.3,0,6-2.7,6-6V55.9c0-3.3-2.7-6-6-6s-6,2.7-6,6v44.7C198,103.9,200.7,106.6,204,106.6z"/>
<path class="st1" d="M204,161.3c3.3,0,6-2.7,6-6v-33.7c0-3.3-2.7-6-6-6s-6,2.7-6,6l0,0v33.7C198,158.7,200.7,161.3,204,161.3z"/>
<path class="st1" d="M156,69.9c-3.3,0-6,2.7-6,6v33.8c0,3.3,2.7,6,6,6s6-2.7,6-6V75.9C162,72.6,159.3,69.9,156,69.9z"/>
<path class="st1" d="M156,125.5c-3.3,0-6,2.7-6,6l0,0v45.2c0,3.3,2.7,6,6,6s6-2.7,6-6v-45.2C162,128.2,159.3,125.5,156,125.5
	C156,125.5,156,125.5,156,125.5z"/>
<path class="st1" d="M156,189.8c-3.3,0-6,2.7-6,6v9.6c0,3.3,2.7,6,6,6s6-2.7,6-6v-9.6C162,192.5,159.3,189.8,156,189.8z"/>
<path class="st1" d="M350,104.9c3.3,0,6-2.7,6-6v-23c0-3.3-2.7-6-6-6s-6,2.7-6,6v23C344,102.2,346.7,104.9,350,104.9z"/>
<path class="st1" d="M350,211.3c3.3,0,6-2.7,6-6v-84.8c0-3.3-2.7-6-6-6s-6,2.7-6,6v84.8C344,208.7,346.7,211.3,350,211.3z"/>
</svg>
