<?xml version="1.0" encoding="utf-8"?>
<!-- Generator: Adobe Illustrator 21.0.0, SVG Export Plug-In . SVG Version: 6.00 Build 0)  -->
<svg version="1.1" id="Слой_1" xmlns="http://www.w3.org/2000/svg" xmlns:xlink="http://www.w3.org/1999/xlink" x="0px" y="0px"
	 viewBox="0 0 429 429" style="enable-background:new 0 0 429 429;" xml:space="preserve">
<style type="text/css">
	.st0{fill:#00CAA4;}
	.st1{fill:#0072DE;}
</style>
<path class="st0" d="M204,186.3c-2,0-4-0.9-5.3-2.4l-15.5-18.2c-1.6-1.9-2.2-4.5-1.3-6.9c0.8-2.4,2.9-4.1,5.3-4.6
	c2.5-0.4,5,0.5,6.6,2.4l11.1,13l30.9-25.1c1.9-1.6,4.6-2.1,6.9-1.2c2.4,0.9,4,3,4.4,5.5s-0.6,5-2.6,6.6l-36.2,29.4
	C207.2,185.7,205.6,186.3,204,186.3z"/>
<path class="st0" d="M214.3,241.4c-42.4,0-76.9-34.4-76.9-76.9c0-42.4,34.4-76.9,76.9-76.9c42.4,0,76.9,34.4,76.9,76.9
	C291.1,207,256.8,241.4,214.3,241.4z M214.3,101.7c-34.7,0-62.9,28.2-62.9,62.9s28.2,62.9,62.9,62.9s62.9-28.2,62.9-62.9
	C277.2,129.9,249,101.7,214.3,101.7z"/>
<path class="st1" d="M408.1,160.5l-65.2-40.3c-0.2-0.1-0.5-0.3-0.7-0.4l-1-0.5v-17c0-1.7-0.6-3.4-1.8-4.7L254,2.5
	c-0.1-0.1-0.2-0.2-0.3-0.3c-1.3-1.4-3.1-2.2-5-2.2c-0.3,0-0.5,0-0.8,0h-0.1c-0.2,0-0.5,0-0.7,0H126.3C105,0,87.7,17.3,87.7,38.6
	v81.2l-67,40.6c-8,4.9-12.9,13.6-12.9,23v194.2c0,28.3,23,51.3,51.4,51.4h310.5c28.3,0,51.3-23,51.4-51.4V183.4
	C421,174.1,416.1,165.4,408.1,160.5z M400.8,172.4c3.8,2.4,6.2,6.6,6.2,11.1v10.6l-65.9,40.3v-98.8L400.8,172.4z M255.6,25.2
	l54.1,60.3h-29.5c-13.6,0-24.7-11.1-24.7-24.7L255.6,25.2L255.6,25.2z M126.3,14h115.4v46.9c0,21.3,17.3,38.6,38.6,38.6h42l4.9,5.5
	v137.8l-112.8,68.9l-112.8-68.9V38.6C101.6,25,112.7,14,126.3,14z M27.9,172.4l59.7-36.2v98.1L21.7,194v-10.6
	C21.8,178.9,24.1,174.8,27.9,172.4z M369.7,415H59.1c-20.6,0-37.4-16.7-37.4-37.4V210.4l68,41.6c0.7,0.7,1.6,1.2,2.5,1.5l118.4,72.4
	c2.2,1.4,5.1,1.4,7.3,0l118.4-72.4c0.9-0.3,1.8-0.8,2.5-1.5l68-41.6v167.2C407,398.3,390.3,415,369.7,415z"/>
</svg>
