<?xml version="1.0" encoding="utf-8"?>
<!-- Generator: Adobe Illustrator 21.0.0, SVG Export Plug-In . SVG Version: 6.00 Build 0)  -->
<svg version="1.1" id="Layer_1" xmlns="http://www.w3.org/2000/svg" xmlns:xlink="http://www.w3.org/1999/xlink" x="0px" y="0px"
	 viewBox="0 0 512 512" style="enable-background:new 0 0 512 512;" xml:space="preserve">
<style type="text/css">
	.st0{fill:#0072DE;}
	.st1{fill:#00CAA4;}
</style>
<title>Promote user</title>
<path class="st0" d="M256.1,57.6c-27.6,0-49.9,22.4-49.9,49.9v22c-0.1,27.6,22.1,50,49.7,50.2s50-22.1,50.2-49.7c0-0.2,0-0.3,0-0.5
	v-22C306,80,283.7,57.7,256.1,57.6z M294,129.5c0,20.9-17,37.9-37.9,37.9l0,0c-20.9,0-37.9-17-37.9-37.9v-22
	c-0.1-21,16.8-38,37.7-38.1c21-0.1,38,16.8,38.1,37.7c0,0.1,0,0.3,0,0.4L294,129.5z"/>
<path class="st0" d="M168.5,310.8c0,3.3,2.7,6,6,6h163.1c3.3,0,6-2.7,6-6v-16H456c3.3,0,6-2.7,6-6v-43.3c0-26-20.2-47.5-46.2-49.2
	c-3.2-0.2-4.8,1.8-6.3,3.6c-10.9,13.4-30.6,15.3-44,4.4c-2-1.6-3.8-3.5-5.3-5.6c-1.2-1.6-3-2.5-5-2.4c-8.7,0.2-17.3,2.7-24.7,7.3
	c-9.8-11.6-23.8-18.7-38.9-19.6c-3.1-0.2-4.7,1.7-6.4,3.8c-12.8,15.6-35.8,17.9-51.5,5.1c-2.3-1.9-4.4-4.1-6.2-6.6
	c-1.2-1.6-3-2.5-5-2.4c-14.4,0.3-28.2,6.3-38.3,16.7c-1,1-1.9,2-2.8,3.1c-6.9-4.3-14.8-6.8-23-7.3c-3.2-0.2-4.8,1.8-6.3,3.6
	c-10.9,13.4-30.6,15.3-44,4.4c-2-1.6-3.8-3.5-5.3-5.6c-1.2-1.6-3-2.5-5-2.4c-26.7,0.7-48,22.5-48,49.3v43.3c0,3.3,2.7,6,6,6h112.5
	V310.8z M352.6,208.5c15.7,18.1,43,20,61,4.3c1.5-1.3,2.9-2.7,4.2-4.2c18.4,2.6,32.1,18.3,32.1,36.9v37.3H343.7v-43.4
	c0-9-2.2-17.8-6.4-25.8C342,210.8,347.2,209,352.6,208.5z M219.9,196.1c17.4,20.4,48,22.9,68.5,5.5c1.9-1.6,3.7-3.4,5.4-5.3
	c21.7,2.8,37.9,21.2,37.9,43.1v65.4H180.5v-65.4C180.5,216.9,197.6,198.2,219.9,196.1L219.9,196.1z M62,282.8v-37.3
	c0.1-19.1,14.5-35,33.4-37.1c15.7,18.1,43,20,61,4.3c1.5-1.3,2.9-2.7,4.2-4.2c5,0.7,9.8,2.4,14.1,5c-4.2,7.9-6.3,16.8-6.3,25.7v43.4
	H62z"/>
<path class="st0" d="M384.6,193.8c24.5,0,44.4-19.9,44.5-44.5v-19.2c-0.1-24.6-20.1-44.4-44.7-44.2c-24.4,0.1-44.1,19.9-44.2,44.2
	v19.2C340.2,173.9,360.1,193.8,384.6,193.8z M352.1,130.2c0.1-17.9,14.7-32.4,32.6-32.3c17.8,0.1,32.2,14.5,32.3,32.3v19.2
	c0,17.9-14.5,32.4-32.5,32.5l0,0c-17.9,0-32.4-14.5-32.5-32.5V130.2z"/>
<path class="st0" d="M127.4,85.7c-24.5,0-44.4,19.9-44.5,44.5v19.2c0.1,24.6,20.1,44.4,44.7,44.2c24.4-0.1,44.1-19.9,44.2-44.2
	v-19.2C171.8,105.6,151.9,85.7,127.4,85.7z M159.9,149.4c-0.1,17.9-14.7,32.4-32.6,32.3c-17.8-0.1-32.2-14.5-32.3-32.3v-19.2
	c0.1-17.9,14.7-32.4,32.6-32.3c17.8,0.1,32.2,14.5,32.3,32.3V149.4z"/>
<path class="st1" d="M260.2,340.4c-2.3-2.3-6.1-2.3-8.5,0c0,0,0,0,0,0l-29.1,29.1c-2.4,2.3-2.4,6.1-0.1,8.5c2.3,2.4,6.1,2.4,8.5,0.1
	c0,0,0,0,0.1-0.1l17.9-17.9v85.5c0,3.3,2.7,6,6,6c3.3,0,6-2.7,6-6l0,0v-87.6l19.9,19.9c2.3,2.4,6.1,2.4,8.5,0.1
	c2.4-2.3,2.4-6.1,0.1-8.5c0,0,0,0-0.1-0.1L260.2,340.4z"/>
<path class="st1" d="M91.6,434.6c3.3,0,6-2.7,6-6v-28l59.6,52.2c2.5,2.2,6.3,2,8.5-0.5c2.2-2.5,2-6.3-0.5-8.5c0,0,0,0,0,0
	l-57.5-50.5h25.3c3.3,0,6-2.7,6-6s-2.7-6-6-6H91.6c-0.1,0-0.1,0-0.2,0c-0.1,0-0.2,0-0.3,0s-0.2,0-0.3,0s-0.2,0-0.3,0s-0.2,0-0.3,0.1
	c-0.1,0-0.2,0-0.3,0.1c-0.1,0-0.2,0.1-0.3,0.1c-0.1,0-0.2,0.1-0.3,0.1s-0.2,0.1-0.3,0.1s-0.2,0.1-0.3,0.1s-0.2,0.1-0.2,0.1
	s-0.2,0.1-0.3,0.2s-0.2,0.1-0.2,0.2s-0.2,0.1-0.2,0.2s-0.2,0.1-0.2,0.2s-0.1,0.1-0.2,0.2s-0.2,0.2-0.2,0.2c0,0-0.1,0.1-0.1,0.1
	c0,0,0,0-0.1,0.1c-0.1,0.1-0.1,0.2-0.2,0.3c-0.1,0.1-0.1,0.1-0.2,0.2c-0.1,0.1-0.1,0.2-0.2,0.3c0,0.1-0.1,0.1-0.1,0.2
	s-0.1,0.2-0.1,0.3s-0.1,0.2-0.1,0.2s-0.1,0.2-0.1,0.3s-0.1,0.2-0.1,0.3s-0.1,0.2-0.1,0.3s-0.1,0.2-0.1,0.3s0,0.2,0,0.3s0,0.2,0,0.3
	c0,0.1,0,0.2,0,0.3c0,0.1,0,0.2,0,0.3c0,0,0,0.1,0,0.1v41.2C85.6,431.9,88.2,434.6,91.6,434.6z"/>
<path class="st1" d="M426.4,388.3C426.4,388.3,426.4,388.3,426.4,388.3c0-0.3-0.1-0.5-0.1-0.7c0-0.1,0-0.1,0-0.2
	c0-0.1-0.1-0.3-0.1-0.4c0-0.1-0.1-0.2-0.1-0.2c0-0.1-0.1-0.2-0.1-0.3s-0.1-0.2-0.1-0.3c0-0.1-0.1-0.2-0.1-0.2
	c-0.1-0.2-0.2-0.3-0.3-0.5c0,0-0.1-0.1-0.1-0.1c-0.1-0.1-0.2-0.3-0.3-0.4l0,0c0-0.1-0.1-0.1-0.1-0.1c-0.1-0.1-0.2-0.2-0.2-0.3
	s-0.1-0.1-0.2-0.2s-0.1-0.1-0.2-0.2s-0.2-0.1-0.3-0.2c-0.1,0-0.1-0.1-0.2-0.1c-0.1-0.1-0.2-0.1-0.3-0.2c-0.1,0-0.1-0.1-0.2-0.1
	s-0.2-0.1-0.3-0.1s-0.2-0.1-0.3-0.1s-0.2-0.1-0.3-0.1c-0.1,0-0.2-0.1-0.3-0.1c-0.1,0-0.2,0-0.3-0.1c-0.1,0-0.2-0.1-0.3-0.1
	s-0.2,0-0.3,0s-0.2,0-0.3,0c-0.1,0-0.3,0-0.4,0c-0.1,0-0.1,0-0.2,0h-41.2c-3.3,0-6,2.7-6,6s2.7,6,6,6h24.7l-58.3,48.9
	c-2.5,2.1-2.9,5.9-0.7,8.5c2.1,2.5,5.9,2.9,8.5,0.7l0,0l61.1-51.3v28.3c0,3.3,2.7,6,6,6s6-2.7,6-6v-41.2
	C426.4,388.7,426.4,388.5,426.4,388.3z"/>
</svg>
