<?xml version="1.0" encoding="utf-8"?>
<!-- Generator: Adobe Illustrator 21.0.0, SVG Export Plug-In . SVG Version: 6.00 Build 0)  -->
<svg version="1.1" id="Layer_1" xmlns="http://www.w3.org/2000/svg" xmlns:xlink="http://www.w3.org/1999/xlink" x="0px" y="0px"
	 viewBox="0 0 512 512" style="enable-background:new 0 0 512 512;" xml:space="preserve">
<style type="text/css">
	.st0{fill:#0072DE;}
	.st1{fill:#00CAA4;}
</style>
<title>Artboard 61</title>
<path class="st0" d="M64.3,262h77.5c3.3,0,6-2.7,6-6c0-3.3-2.7-6-6-6H70.4c2.9-90.3,70.4-165.4,159.9-177.9c3.3-0.5,5.6-3.5,5.1-6.8
	c-0.5-3.3-3.5-5.6-6.8-5.1l0,0C131,73.9,58.3,157.4,58.3,256C58.3,259.3,61,262,64.3,262z"/>
<path class="st0" d="M256,492c130.3,0,236-105.7,236-236c0-62.6-24.9-122.6-69.1-166.9c-92-92.3-241.4-92.5-333.8-0.5
	s-92.5,241.4-0.5,333.8c0.2,0.2,0.3,0.3,0.5,0.5C133.3,467.3,193.4,492.2,256,492z M97.6,97.6c87.5-87.5,229.3-87.5,316.8,0
	s87.5,229.3,0,316.8s-229.3,87.5-316.8,0S10.1,185.1,97.6,97.6z"/>
<path class="st0" d="M256,133.4c3.3,0,6-2.7,6-6v-57c89.7,2.9,164.5,69.5,177.7,158.3c0.4,2.9,3,5.1,5.9,5.1c0.3,0,0.6,0,0.9-0.1
	c3.3-0.5,5.5-3.5,5.1-6.8c0,0,0,0,0,0C437.2,130.1,354,58.3,256,58.3c-3.3,0-6,2.7-6,6v63.1C250,130.7,252.7,133.4,256,133.4z"/>
<path class="st0" d="M390.8,250c-3.3,0-6,2.7-6,6c0,3.3,2.7,6,6,6h50.8c-2.9,89.9-69.8,164.7-158.7,177.7c-3.3,0.5-5.6,3.5-5.1,6.8
	c0.4,3,3,5.2,5.9,5.2c0.3,0,0.6,0,0.9-0.1c97.1-14.2,169.1-97.5,169.1-195.6c0-3.3-2.7-6-6-6H390.8z"/>
<path class="st0" d="M125.4,404.4c36.1,31.8,82.5,49.3,130.6,49.3c3.3,0,6-2.7,6-6v-47.1c0-3.3-2.7-6-6-6c-3.3,0-6,2.7-6,6v41
	c-90.5-2.9-165.7-70.8-178-160.5c-0.4-3.3-3.5-5.6-6.7-5.1c-3.3,0.4-5.6,3.5-5.1,6.7C66.5,329.8,89.7,373,125.4,404.4z"/>
<path class="st1" d="M212.3,206.5c0,24.1,19.6,43.7,43.7,43.7c24.1,0,43.7-19.6,43.7-43.7v-18.9c0-24.1-19.6-43.7-43.7-43.7
	c-24.1,0-43.7,19.6-43.7,43.7L212.3,206.5z M224.3,187.7c0-17.5,14.2-31.7,31.7-31.7c17.5,0,31.7,14.2,31.7,31.7v18.9
	c0,17.5-14.2,31.7-31.7,31.7s-31.7-14.2-31.7-31.7L224.3,187.7z"/>
<path class="st1" d="M286.6,252.4c-3.2-0.2-4.8,1.8-6.2,3.5c-10.7,13-29.9,15-43,4.3c-2-1.6-3.7-3.4-5.2-5.5c-1.2-1.6-3-2.5-5-2.4
	c-26.3,0.7-47.2,22.1-47.2,48.4V362c0,3.3,2.7,6,6,6h140c3.3,0,6-2.7,6-6v-61.3C332,275.2,312.1,254.1,286.6,252.4z M320,356H192
	v-55.3c0.1-18.6,14.1-34.2,32.6-36.2c15.4,17.7,42.3,19.6,60,4.2c1.4-1.2,2.8-2.6,4-4c18,2.6,31.3,17.9,31.3,36.1V356z"/>
</svg>
