<?xml version="1.0" encoding="utf-8"?>
<!-- Generator: Adobe Illustrator 21.0.0, SVG Export Plug-In . SVG Version: 6.00 Build 0)  -->
<svg version="1.1" id="Слой_1" xmlns="http://www.w3.org/2000/svg" xmlns:xlink="http://www.w3.org/1999/xlink" x="0px" y="0px"
	 viewBox="0 0 432 432" style="enable-background:new 0 0 432 432;" xml:space="preserve">
<style type="text/css">
	.st0{fill:#00CAA4;}
	.st1{fill:#0072DE;}
</style>
<path class="st0" d="M112.2,0H6C2.7,0,0,2.7,0,6v106.2c0,3.3,2.7,6,6,6s6-2.7,6-6V12h100.2c3.3,0,6-2.7,6-6S115.6,0,112.2,0z"/>
<path class="st0" d="M112.2,420H12V319.8c0-3.3-2.7-6-6-6s-6,2.7-6,6V426c0,3.3,2.7,6,6,6h106.2c3.3,0,6-2.7,6-6
	S115.6,420,112.2,420z"/>
<path class="st0" d="M426,313.8c-3.3,0-6,2.7-6,6V420H319.8c-3.3,0-6,2.7-6,6s2.7,6,6,6H426c3.3,0,6-2.7,6-6V319.8
	C432,316.4,429.3,313.8,426,313.8z"/>
<path class="st0" d="M426,0H319.8c-3.3,0-6,2.7-6,6s2.7,6,6,6H420v100.2c0,3.3,2.7,6,6,6s6-2.7,6-6V6C432,2.7,429.3,0,426,0z"/>
<path class="st1" d="M172.4,126.4v19.2c0.1,24,19.6,43.4,43.6,43.4c24,0,43.5-19.4,43.6-43.4v-19.2c-0.1-24-19.6-43.4-43.6-43.4
	C192.1,83,172.6,102.4,172.4,126.4z M216.1,93.3c18.3,0,33.1,14.8,33.1,33.1v19.2c0,18.3-14.8,33.1-33.2,33.1s-33.1-14.8-33.1-33.1
	v-19.2C182.9,108.1,197.8,93.3,216.1,93.3z"/>
<path class="st1" d="M289.5,146.2V163c-0.1,13.9,7.3,26.8,19.4,33.8c12,7,26.9,7,39,0c12.1-7,19.4-19.9,19.4-33.8v-16.8
	c-0.1-21.4-17.5-38.7-38.8-38.7S289.6,124.8,289.5,146.2z M328.4,117.8c15.7,0,28.3,12.7,28.4,28.4V163c0.1,10.2-5.3,19.6-14.1,24.7
	c-8.8,5.1-19.7,5.1-28.5,0c-8.8-5.1-14.2-14.5-14.1-24.7v-16.8C300,130.5,312.7,117.8,328.4,117.8z"/>
<path class="st1" d="M350.2,207.1c-5.3,6.5-13.4,10.2-21.8,10c-8.4-0.2-16.3-4.3-21.3-11.1c-1-1.4-2.6-2.2-4.3-2.1
	c-7.6,0.2-15.1,2.4-21.6,6.4c-8.5-10.1-20.8-16.3-34-17.1c-2.8-0.2-4.1,1.5-5.6,3.3c-6.2,7.6-15.7,11.9-25.5,11.7
	c-9.9-0.2-19-5-24.9-12.9c-1-1.4-2.6-2.2-4.3-2.1c-12.6,0.3-24.6,5.5-33.4,14.6c-0.8,0.9-1.6,1.8-2.4,2.7c-6.1-3.8-13-6-20.2-6.4
	c-2.7-0.1-4.1,1.5-5.4,3.1c-5.3,6.5-13.4,10.2-21.8,10c-8.4-0.2-16.3-4.3-21.3-11.1c-1-1.4-2.6-2.2-4.3-2.1c-23.3,0.6-42,19.7-42,43
	v37.8c0,2.9,2.3,5.2,5.2,5.2h98.3v14c0,2.9,2.3,5.2,5.2,5.2h142.5c2.9,0,5.2-2.3,5.2-5.2v-14h98.2c2.9,0,5.2-2.3,5.2-5.2V247
	c0-22.8-17.7-41.6-40.5-43C352.8,203.9,351.5,205.5,350.2,207.1z M46.5,279.5V247c0.1-16.7,12.7-30.6,29.2-32.4
	c7.2,8.3,17.5,13,28.5,13c10.9,0,21.3-4.7,28.5-12.9c4.4,0.6,8.6,2.1,12.4,4.4c-3.6,6.9-5.5,14.6-5.5,22.5v38H46.5z M282.1,298.7
	H150v-57.1c0-7.5,2.2-14.8,6.3-21l0,0c1.3-2,2.8-3.8,4.5-5.5c6.3-6.5,14.7-10.5,23.6-11.3c8,9.4,19.8,14.9,32.2,14.9
	c12.4,0,24.2-5.4,32.3-14.8c18.9,2.5,33.1,18.6,33.1,37.6V298.7z M357.5,214.7c16.1,2.3,28,16,28.1,32.3v32.6h-92.9v-38
	c0-7.9-1.9-15.6-5.6-22.5c4.1-2.5,8.7-4,13.4-4.5c6.9,8.1,17,12.8,27.6,13c0.3,0,0.7,0,1,0C339.9,227.6,350.3,222.9,357.5,214.7z"/>
<path class="st1" d="M142.5,163v-16.8c-0.1-21.4-17.5-38.6-38.8-38.6s-38.7,17.3-38.8,38.6V163c-0.1,13.9,7.3,26.8,19.4,33.8
	c12,7,26.9,7,39,0S142.5,176.9,142.5,163z M75.3,163v-16.8c-0.1-10.2,5.3-19.6,14.1-24.7c8.8-5.1,19.7-5.1,28.5,0
	c8.8,5.1,14.2,14.5,14.1,24.7V163c0.1,10.2-5.3,19.6-14.1,24.7c-8.8,5.1-19.7,5.1-28.5,0C80.6,182.6,75.2,173.1,75.3,163z"/>
</svg>
